/* XPM */
static char *eb99150ea04c4746ce0a64a082db9cb4YEOGaYaml7IumfZ4[] = {
/* columns rows colors chars-per-pixel */
"64 64 98 2 ",
"   c None",
".  c #050607",
"X  c #0C0F10",
"o  c #0B1314",
"O  c #0E1718",
"+  c #111415",
"@  c #131617",
"#  c #141819",
"$  c #2A0000",
"%  c #2B0F06",
"&  c #3E0002",
"*  c #391509",
"=  c #38170A",
"-  c #152224",
";  c #1C2022",
":  c #1F2325",
">  c #182527",
",  c #272C2E",
"<  c #202E31",
"1  c #253639",
"2  c #2C393E",
"3  c #303738",
"4  c #34383A",
"5  c #4B0103",
"6  c #5B0105",
"7  c #670000",
"8  c #650007",
"9  c #79030A",
"0  c #4A210F",
"q  c #592B07",
"w  c #48342D",
"e  c #784B1F",
"r  c #3B4F53",
"t  c #3E575C",
"y  c #484D4F",
"u  c #7D6344",
"i  c #595F61",
"p  c #5E6363",
"a  c #52636A",
"s  c #526B70",
"d  c #646B6E",
"f  c #89000D",
"g  c #BF000D",
"h  c #A70013",
"j  c #A40513",
"k  c #C8081B",
"l  c #FF0914",
"z  c #FF0B1C",
"x  c #EC263A",
"c  c #F52D3B",
"v  c #FF353D",
"b  c #FF3F3E",
"n  c #8D5F34",
"m  c #8B6524",
"M  c #9F5E5E",
"N  c #B45E66",
"B  c #8C7F7A",
"V  c #FF5941",
"C  c #F8485A",
"Z  c #FF655E",
"A  c #F85F6E",
"S  c #DC636F",
"D  c #FF7761",
"F  c #B79457",
"G  c #FF8574",
"H  c #FF9E77",
"J  c #FFCB6B",
"K  c #E7C07C",
"L  c #F37683",
"P  c #73858E",
"I  c #73969E",
"U  c #7E929C",
"Y  c #808C8B",
"T  c #8A9294",
"R  c #8C9395",
"E  c #92999A",
"W  c #959EA1",
"Q  c #99A2A5",
"!  c #A1AAAF",
"~  c #A4A8AE",
"^  c #A1AFB1",
"/  c #A9ACB0",
"(  c #BDBFBB",
")  c #DBB2B6",
"_  c #E4B2B8",
"`  c #EEB4BA",
"'  c #96BCC1",
"]  c #F9BDC3",
"[  c #C1C5C6",
"{  c #CACFC6",
"}  c #CFD4D4",
"|  c #DCD5D1",
" . c #DBDDDD",
".. c #F1EBDF",
"X. c #D3E8F6",
"o. c #E7F3FA",
"O. c #F5FAFD",
"+. c white",
/* pixels */
"                                                                                                                                ",
"                                                                                                                                ",
"                                                                                                                                ",
"                                                                                                                                ",
"                                                        = = = = = = = = =                                                       ",
"                                                        = = = = = = = = =                                                       ",
"                                                    % % m m m F F F K K K = =                                                   ",
"                                                    % % m m m F F F K K K = =                                                   ",
"                                                    % % = = = 0 0 0 0 0 0 % %                                                   ",
"                                                    % % = = = 0 0 0 0 0 0 % %                                                   ",
"                                              : : : = = q q q e e e n n n = = : : :                                             ",
"                                              : : : = = q q q e e e n n n = = : : :                                             ",
"                                        : : : ' ' ' 4 4 q q q q q q e e e i i X.X.X.: : :                                       ",
"                                        : : : ' ' ' 4 4 q q q q q q e e e i i X.X.X.: : :                                       ",
"                                        : : : I I I ~ ~ 4 4 4 y y y i i i / / +.+.+.: : :                                       ",
"                                        : : : I I I ~ ~ 4 4 4 y y y i i i / / +.+.+.: : :                                       ",
"                                              : : : Y Y { { { ( ( ( ......| | : : :                                             ",
"                                              : : : Y Y { { { ( ( ( ......| | : : :                                             ",
"                                                    + + ; ; ; , , , 3 3 3 + +                                                   ",
"                                                    + + ; ; ; , , , 3 3 3 + +                                                   ",
"                                                    + + w w w u u u B B B + +                                                   ",
"                                                    + + w w w u u u B B B + +                                                   ",
"                                              : : : ' ' t t t w w w ^ ^ ^ +.+.: : :                                             ",
"                                              : : : ' ' t t t w w w ^ ^ ^ +.+.: : :                                             ",
"                                        : : : ' ' ' t t - - - s s s o.o.o.o.o.+.+.+.: : :                                       ",
"                                        : : : ' ' ' t t - - - s s s o.o.o.o.o.+.+.+.: : :                                       ",
"                                  : : : ' ' ' t t t - - s s s P P P X.X.X.O.O.+.+.+.+.+.+.: : :                                 ",
"                                  : : : ' ' ' t t t - - s s s P P P X.X.X.O.O.+.+.+.+.+.+.: : :                                 ",
"                              : : 7 7 7 t t t 1 1 1 - - P P P X.X.X.+.+.+.X.X.+.+.+.+.+.+.+.+.+.# #                             ",
"                              : : 7 7 7 t t t 1 1 1 - - P P P X.X.X.+.+.+.X.X.+.+.+.+.+.+.+.+.+.# #                             ",
"                        $ $ $ 7 7 x x x 7 7 7 7 7 7 t t s s s X.X.X.+.+.+.+.+.X.X.X.O.O.O.[ [ [ p p . . .                       ",
"                        $ $ $ 7 7 x x x 7 7 7 7 7 7 t t s s s X.X.X.+.+.+.+.+.X.X.X.O.O.O.[ [ [ p p . . .                       ",
"                        $ $ $ f f 7 7 7 x x x C C C 7 7 1 1 1 s s s P P P T T R R R Q Q Q d d d E E # # #                       ",
"                        $ $ $ f f 7 7 7 x x x C C C 7 7 1 1 1 s s s P P P T T R R R Q Q Q d d d E E # # #                       ",
"                              $ $ f f f 7 7 7 7 7 7 x x 7 7 7 o o o O O O 2 2 ! ! !  . . .E E E X X                             ",
"                              $ $ f f f 7 7 7 7 7 7 x x 7 7 7 o o o O O O 2 2 ! ! !  . . .E E E X X                             ",
"                                  $ $ $ f f f & & & 7 7 C C C 7 7 7 > > > r r ! ! ! +.+.+.X X X                                 ",
"                                  $ $ $ f f f & & & 7 7 C C C 7 7 7 > > > r r ! ! ! +.+.+.X X X                                 ",
"                                  $ $ $ g g g 5 5 5 7 7 x x x G G G 7 7 7 < < a a a  . . .X X X                                 ",
"                                  $ $ $ g g g 5 5 5 7 7 x x x G G G 7 7 7 < < a a a  . . .X X X                                 ",
"                              $ $ f f f 6 6 6 j j j 7 7 k k k x x x C C C 7 7 < < < W W W U U U X X                             ",
"                              $ $ f f f 6 6 6 j j j 7 7 k k k x x x C C C 7 7 < < < W W W U U U X X                             ",
"                        $ $ $ f f 8 8 8 k k k b b b j j 7 7 7 k k k x x x Z Z 7 7 7 > > > } } } r r + + +                       ",
"                        $ $ $ f f 8 8 8 k k k b b b j j 7 7 7 k k k x x x Z Z 7 7 7 > > > } } } r r + + +                       ",
"                  $ $ $ f f f 8 8 j j j k k k v v v Z Z j j j 7 7 7 k k k x x C C C 7 7 7 7 7 7 M M < < < X X X                 ",
"                  $ $ $ f f f 8 8 j j j k k k v v v Z Z j j j 7 7 7 k k k x x C C C 7 7 7 7 7 7 M M < < < X X X                 ",
"                  $ $ $ g g g 8 8 k k k c c c x x x Z Z C C C j j j 7 7 7 7 7 k k k x x x x x x ] ] 7 7 7 $ $ $                 ",
"                  $ $ $ g g g 8 8 k k k c c c x x x Z Z C C C j j j 7 7 7 7 7 k k k x x x x x x ] ] 7 7 7 $ $ $                 ",
"            $ $ $ f f f 8 8 8 l l k k k x x x V V V v v J J J C C C C C C H H 7 7 7 7 7 7 7 7 7 +.+.L L L k k k $ $ $           ",
"            $ $ $ f f f 8 8 8 l l k k k x x x V V V v v J J J C C C C C C H H 7 7 7 7 7 7 7 7 7 +.+.L L L k k k $ $ $           ",
"            $ $ $ f f f 8 8 8 j j k k k x x x x x x x x v v v v v v Z Z Z Z Z Z Z Z A A A H H H M M M M M 7 7 7 $ $ $           ",
"            $ $ $ f f f 8 8 8 j j k k k x x x x x x x x v v v v v v Z Z Z Z Z Z Z Z A A A H H H M M M M M 7 7 7 $ $ $           ",
"            $ $ $ g g g 8 8 8 9 9 j j j k k k x x x V V x x x x x x v v v x x D D D C C C C C C +.+.S S S k k k $ $ $           ",
"            $ $ $ g g g 8 8 8 9 9 j j j k k k x x x V V x x x x x x v v v x x D D D C C C C C C +.+.S S S k k k $ $ $           ",
"            $ $ $ f f f 8 8 8 8 8 j j j z z z k k k x x v v v x x x V V V x x x x x x x x L L L ] ] h h h h h h $ $ $           ",
"            $ $ $ f f f 8 8 8 8 8 j j j z z z k k k x x v v v x x x V V V x x x x x x x x L L L ] ] h h h h h h $ $ $           ",
"                  $ $ $ f f f 8 8 8 8 8 f f f j j j k k k k k k k k k k k S S S S S S S S ` ` ` h h f f f $ $ $                 ",
"                  $ $ $ f f f 8 8 8 8 8 f f f j j j k k k k k k k k k k k S S S S S S S S ` ` ` h h f f f $ $ $                 ",
"                        $ $ $ f f g g g 8 8 8 8 8 8 N N S S S S S S S S S _ _ +.+.+.) ) ) f f f f f $ $ $                       ",
"                        $ $ $ f f g g g 8 8 8 8 8 8 N N S S S S S S S S S _ _ +.+.+.) ) ) f f f f f $ $ $                       ",
"                              $ $ $ $ $ f f f f f f g g f f f f f f g g g f f f f f f f f $ $ $ $ $                             ",
"                              $ $ $ $ $ f f f f f f g g f f f f f f g g g f f f f f f f f $ $ $ $ $                             ",
"                                        $ $ $ $ $ $ $ $ $ $ $ $ $ $ $ $ $ $ $ $ $ $ $ $ $                                       ",
"                                        $ $ $ $ $ $ $ $ $ $ $ $ $ $ $ $ $ $ $ $ $ $ $ $ $                                       "
};
