/* XPM */
static char *e8493a7a34a9400eb81ae4cb244b7150N3wG41XobnjHWcgo[] = {
/* columns rows colors chars-per-pixel */
"32 32 14 1 ",
"  c black",
". c #602800",
"X c #884810",
"o c #985E18",
"O c #AF7F18",
"+ c #B08018",
"@ c #C8A218",
"# c #D8B218",
"$ c #E0B118",
"% c #D0A720",
"& c #E8BD30",
"* c #F8CE28",
"= c #F8E788",
"- c white",
/* pixels */
"   ######################%%%%   ",
"   ######################%%%%   ",
" ##&&----==============****@@XX ",
" ##&&----==============****@@XX ",
" ##==..################%%..OO.. ",
" ##==..################%%..OO.. ",
" ##==####--------------##%%OO.. ",
" ##==####--------------##%%OO.. ",
" ##**##------------------XXOO.. ",
" ##**##------------------XXOO.. ",
" ##**##-----XXXXXXXX-----XXOO.. ",
" ##**##-----XXXXXXXX-----XXOO.. ",
" %%&&##-----++######-----XXoo.. ",
" %%&&##-----++######-----XXoo.. ",
" %%&&##XXXXX##-----------XXoo.. ",
" %%&&##XXXXX##-----------XXoo.. ",
" %%&&#######-----------##XXoo.. ",
" %%&&#######-----------##XXoo.. ",
" @@$$#####%%--------XXXXX##oo.. ",
" @@$$#####%%--------XXXXX##oo.. ",
" OO$$###%%%%--------XX#####XX.. ",
" OO$$###%%%%--------XX#####XX.. ",
" OO####%%%%%++XXXXXXXX#####XX.. ",
" OO####%%%%%++XXXXXXXX#####XX.. ",
" OO##%%%%%%%--------XX#####XX.. ",
" OO##%%%%%%%--------XX#####XX.. ",
" OO@@..+++++--------XX+++..XX.. ",
" OO@@..+++++--------XX+++..XX.. ",
" XXoooooooooXXXXXXXXXXoooooXX.. ",
" XXoooooooooXXXXXXXXXXoooooXX.. ",
"   ..........................   ",
"   ..........................   "
};
