/* XPM */
static char *_e6a0007b7724aef9c533647d62d31a4C0tDupdhgEtxCb6N[] = {
/* columns rows colors chars-per-pixel */
"64 64 15 1 ",
"  c black",
". c #231F31",
"X c #602800",
"o c #884810",
"O c #985E18",
"+ c #AF7F18",
"@ c #B08018",
"# c #C8A218",
"$ c #D8B218",
"% c #E0B118",
"& c #D0A720",
"* c #E8BD30",
"= c #F8CE28",
"- c #F8E788",
"; c white",
/* pixels */
"                                                                ",
"                                                                ",
"      $$$$$$$$$$$$$$$$$$$$$$$$  $$$$$$$$$$$$$$$$$$&&&&&&&&      ",
"      $$$$$$$$$$$$$$$$$$$$$$$$  $$$$$$$$$$$$$$$$$$&&&&&&&&      ",
"  $$$$****;;;;;;;;-----------o  $-------------========####oooo  ",
"  $$$$****;;;;;;;;-----------o  $-------------========####oooo  ",
"  $$$$****;;;;;;;;-----------o  $-------------========####oooo  ",
"  $$$$****;;;;;;;;-----------o  $-------------========####oooo  ",
"  $$$$----XXXX$$$$$$$$$$$XXXXX  $XXXX$$$$$$$$$&&&&XXXX++++XXXX  ",
"  $$$$----XXXX$$$$$$$$$$$XXXXX  $XXXX$$$$$$$$$&&&&XXXX++++XXXX  ",
"  $$$$----XXXX$$$$$$$$$$$XXXXX  $XXXX$$$$$$$$$&&&&XXXX++++XXXX  ",
"  $$$$----XXXX$$$$$$$$$$$XXXXX  $XXXX$$$$$$$$$&&&&XXXX++++XXXX  ",
"  $$$$----$$$$$$$$$$$$$$$$$$$X  $$$$$$$$$$$$$$$$$$$&&&++++XXXX  ",
"  $$$$----$$$$$$$$$$$$$$$$$$$X  $$$$$$$$$$$$$$$$$$$&&&++++XXXX  ",
"  $$$$----$$$$$$$$$$$$$$$$$$$X  $$$$$$$$$$$$$$$$$$$&&&++++XXXX  ",
"  $$$$----$$$$$$$$$$$$$$$$$$$X  $$$$$$$$$$$$$$$$$$$&&&++++XXXX  ",
"  $$$$====$$$$$$$$$$$$$$$$$$$X  $$$$$$$$$$$$$$$$$$$ooo++++XXXX  ",
"  $$$$====$$$$$$$$$$$$$$$$$$$X  $$$$$$$$$$$$$$$$$$$ooo++++XXXX  ",
"  $$$$====$$$$$$$$$$$$$$$$$$$X  $$$$$$$$$$$$$$$$$$$ooo++++XXXX  ",
"  $$$$====$$$$$$$$$$$$$$$$$$$X  $$$$$$$$$$$$$$$$$$$ooo++++XXXX  ",
"  $$$$====$$$$$$$$$$$$$$$$$$$X  $$$$$$$$$$$$$$$$$$$ooo++++XXXX  ",
"  $$$$====$$$$$$$$$$$$$$$$$$$X  $$$$$$$$$$$$$$$$$$$ooo++++XXXX  ",
"  $$$$====$$$$$$$$$$$$$$$$$$$X  $$$$$$$$$$$$$$$$$$$ooo++++XXXX  ",
"  $$$$====$$$$$$$$$$$$$$$$$$$X  $$$$$$$$$$$$$$$$$$$ooo++++XXXX  ",
"  &&&&****$$$$$$$$$$$$$$$$$$$X  &$$$$$$$$$$$$$$$$$$oooOOOOXXXX  ",
"  &&&&****$$$$$$$$$$$$$$$$$$$X  &$$$$$$$$$$$$$$$$$$oooOOOOXXXX  ",
"  &&&&****$$$$$$$$$$$$$$$$$$$X  &$$$$$$$$$$$$$$$$$$oooOOOOXXXX  ",
"  &&&&****$$$$$$$$$$$$$$$$$$$X  &$$$$$$$$$$$$$$$$$$oooOOOOXXXX  ",
"  &&&&****$$$$$$$$$$$$$$$$$$$X  &$$$$$$$$$$$$$$$$$$oooOOOOXXXX  ",
"  &&&&****$$$$$$$$$$$$$$$$.$$X  &$$.$$$$$$$$$$$$$$$oooOOOOXXXX  ",
"  &&&&****$$$$$$$$$$$$$$$.$.$X  &$.$.$$$$$$$$$$$$$$oooOOOOXXXX  ",
"  &&&&****$$$$$$$$$$$$$$$$.$$X  &$$.$$$$$$$$$$$$$$$oooOOOOXXXX  ",
"  &&&&****$$$$$$$$$$$$$$$$$$$X  &$$$$$$$$$$$$$$$$$$oooOOOOXXXX  ",
"  &&&&****$$$$$$$$$$$$$$$$$$$X  &$$$$$$$$$$$$$$$$$$oooOOOOXXXX  ",
"  &&&&****$$$$$$$$$$$$$$$$$$$X  &$$$$$$$$$$$$$$$$$$oooOOOOXXXX  ",
"  &&&&****$$$$$$$$$$$$$$$$$$$X  &$$$$$$$$$$$$$$$$$$oooOOOOXXXX  ",
"  ####%%%%$$$$$$$$$$$$$$$$$$$X  #$$$$$$$$$$$$$$$$$$$$$OOOOXXXX  ",
"  ####%%%%$$$$$$$$$$$$$$$$$$$X  #$$$$$$$$$$$$$$$$$$$$$OOOOXXXX  ",
"  ####%%%%$$$$$$$$$$$$$$$$$$$X  #$$$$$$$$$$$$$$$$$$$$$OOOOXXXX  ",
"  ####%%%%$$$$$$$$$$$$$$$$$$$X  #$$$$$$$$$$$$$$$$$$$$$OOOOXXXX  ",
"  ++++%%%%$$$$$$$$$$$$$$$$$$$X  +$$$$$$$$$$$$$$$$$$$$$ooooXXXX  ",
"  ++++%%%%$$$$$$$$$$$$$$$$$$$X  +$$$$$$$$$$$$$$$$$$$$$ooooXXXX  ",
"  ++++%%%%$$$$$$$$$$$$$$$$$$$X  +$$$$$$$$$$$$$$$$$$$$$ooooXXXX  ",
"  ++++%%%%$$$$$$$$$$$$$$$$$$$X  +$$$$$$$$$$$$$$$$$$$$$ooooXXXX  ",
"  ++++$$$$$$$$$$$$$$$$$$$$$$$X  +$$$$$$$$$$$$$$$$$$$$$ooooXXXX  ",
"  ++++$$$$$$$$$$$$$$$$$$$$$$$X  +$$$$$$$$$$$$$$$$$$$$$ooooXXXX  ",
"  ++++$$$$$$$$$$$$$$$$$$$$$$$X  +$$$$$$$$$$$$$$$$$$$$$ooooXXXX  ",
"  ++++$$$$$$$$$$$$$$$$$$$$$$$X  +$$$$$$$$$$$$$$$$$$$$$ooooXXXX  ",
"  ++++$$$$&&&&$$$$$$$$$$$$$$$X  +$$$$$$$$$$$$$$$$$$$$$ooooXXXX  ",
"  ++++$$$$&&&&$$$$$$$$$$$$$$$X  +$$$$$$$$$$$$$$$$$$$$$ooooXXXX  ",
"  ++++$$$$&&&&$$$$$$$$$$$$$$$X  +$$$$$$$$$$$$$$$$$$$$$ooooXXXX  ",
"  ++++$$$$&&&&$$$$$$$$$$$$$$$X  +$$$$$$$$$$$$$$$$$$$$$ooooXXXX  ",
"  ++++####XXXX@@@@@@@@@@@XXXXX  +XXXX@@@oooo@@@@@@XXXXooooXXXX  ",
"  ++++####XXXX@@@@@@@@@@@XXXXX  +XXXX@@@oooo@@@@@@XXXXooooXXXX  ",
"  ++++####XXXX@@@@@@@@@@@XXXXX  +XXXX@@@oooo@@@@@@XXXXooooXXXX  ",
"  ++++####XXXX@@@@@@@@@@@XXXXX  +XXXX@@@oooo@@@@@@XXXXooooXXXX  ",
"  ooooOOOOOOOOOOOOOOOOOOoooooX  ooooooooooooOOOOOOOOOOooooXXXX  ",
"  ooooOOOOOOOOOOOOOOOOOOoooooX  ooooooooooooOOOOOOOOOOooooXXXX  ",
"  ooooOOOOOOOOOOOOOOOOOOoooooX  ooooooooooooOOOOOOOOOOooooXXXX  ",
"  ooooOOOOOOOOOOOOOOOOOOoooooX  ooooooooooooOOOOOOOOOOooooXXXX  ",
"      XXXXXXXXXXXXXXXXXXXXXXXX  XXXXXXXXXXXXXXXXXXXXXXXXXX      ",
"      XXXXXXXXXXXXXXXXXXXXXXXX  XXXXXXXXXXXXXXXXXXXXXXXXXX      ",
"                                                                ",
"                                                                "
};
