/* XPM */
static char *_f16ed7cc3af4d9bb0aaa4882434295eeqXSqIlO6ClFmkl9[] = {
/* columns rows colors chars-per-pixel */
"64 64 14 1 ",
"  c None",
". c #3C1431",
"X c #582A45",
"o c #AA3432",
"O c #DC9977",
"+ c #192294",
"@ c #1C31AE",
"# c #3250D3",
"$ c #3E68F8",
"% c #5F82F7",
"& c #FCD4BD",
"* c #D6B0D0",
"= c #F9E6F6",
"- c #FFEFF6",
/* pixels */
"                                                                ",
"                                                                ",
"                                                                ",
"                                                                ",
"                          ############                          ",
"                          ############                          ",
"                    ######$$%%%$$$$$$$######                    ",
"                    ######$$%%%$$$$$$$######                    ",
"                    ######$$%%%$$$$$$$######                    ",
"                  ##$$$$$$$$$$$$$%%%$$$$$$$$##   ++++++++++     ",
"                  ##$$$$$$$$$$$$$%%%$$$$$$$$##   ++++++++++     ",
"               ###$$$$$$$$%%$$$$$$$$$$$$$-----+++@@@@@@@@@@++   ",
"               ###$$$$$$$$%%$$$$$$$$$$$$$-----+++@@@@@@@@@@++   ",
"             #############$$$$$$$--------+++++@@@@@@@@@@@@@@@+++",
"             #############$$$$$$$--------+++++@@@@@@@@@@@@@@@+++",
"                       ###-------$$$$$###OOOOOOOO@@@@@@@+++++   ",
"                       ###-------$$$$$###OOOOOOOO@@@@@@@+++++   ",
"             ##########$$$$$$$$$$$$$##***&&&*****OO+++++        ",
"             ##########$$$$$$$$$$$$$##***&&&*****OO+++++        ",
"          ###$$$$$$$$$$$$$$$$$$#####--***&&&**-----OOO          ",
"          ###$$$$$$$$$$$$$$$$$$#####--***&&&**-----OOO          ",
"          ###$$$$$$$$$$$$$$$$$$#####--***&&&**-----OOO          ",
"             ##################&&---..&&&&&&&&...--OOO          ",
"             ##################&&---..&&&&&&&&...--OOO          ",
"                       ***OO&&&&&...XX&&&oooooXXX..OOO          ",
"                       ***OO&&&&&...XX&&&oooooXXX..OOO          ",
"                          **&&&&&&&&&&&&&ooooo&&&&&OOO          ",
"                          **&&&&&&&&&&&&&ooooo&&&&&OOO          ",
"                          *****&&&&&*****ooooo********          ",
"                          *****&&&&&*****ooooo********          ",
"                          **---*****----------===--***          ",
"                          **---*****----------===--***          ",
"                          **---==-----===-----===--***          ",
"                          **---==-----===-----===--***          ",
"                          **---==-----===-----===--***          ",
"                       ###$$***==-----===---==---**             ",
"                       ###$$***==-----===---==---**             ",
"                    ###$$$$$***--===----------===--***          ",
"                    ###$$$$$***--===----------===--***          ",
"                    ###$$$$$$$$**===-----===--===--***          ",
"                    ###$$$$$$$$**===-----===--===--***          ",
"                    ###$$$$$%%%$$***--===-----*****             ",
"                    ###$$$$$%%%$$***--===-----*****             ",
"                  ##%%%$$$$$$$$$$***--===---==***##             ",
"                  ##%%%$$$$$$$$$$***--===---==***##             ",
"                  ##$$$$$$$$$$$$$$$$**===***==***##             ",
"                  ##$$$$$$$$$$$$$$$$**===***==***##             ",
"                  ##$$$$$$$$$$$$$$$$**===***==***##             ",
"                  ##$$$$$$$$$$$$$%%%$$***$$$**$$$##             ",
"                  ##$$$$$$$$$$$$$%%%$$***$$$**$$$##             ",
"                  ##$$$$$$%%$$$%%%%%%%$$$$$$$$$$$$$###          ",
"                  ##$$$$$$%%$$$%%%%%%%$$$$$$$$$$$$$###          ",
"                  ##$$$$$$$$$$$$$%%%$$$$$$$$$$$$$%%###          ",
"                  ##$$$$$$$$$$$$$%%%$$$$$$$$$$$$$%%###          ",
"               #####$$$$$$$$$$$$$$$$$$$$$%%%$$$$$$$###          ",
"               #####$$$$$$$$$$$$$$$$$$$$$%%%$$$$$$$###          ",
"        ##   ##$$$$$$$$$$$$$%%%$$$$$$$$$$$$$$$$$$$$$$$##        ",
"        ##   ##$$$$$$$$$$$$$%%%$$$$$$$$$$$$$$$$$$$$$$$##        ",
"     ###$$###$$$$$$$$$$$$$$$$$$$$$$$$$$$$$$$$$$$$$$$$$##        ",
"     ###$$###$$$$$$$$$$$$$$$$$$$$$$$$$$$$$$$$$$$$$$$$$##        ",
"     ###$$###$$$$$$$$$$$$$$$$$$$$$$$$$$$$$$$$$$$$$$$$$##        ",
"        ##############################################          ",
"        ##############################################          ",
"                                                                "
};
