/* XPM */
static char *_fcc44bfd2b447e2dfc7bcae411546a2XMXqSy348d7xiVTg[] = {
/* columns rows colors chars-per-pixel */
"64 64 14 1 ",
"  c black",
". c #050401",
"X c #602800",
"o c #884810",
"O c #985E18",
"+ c #AF7F18",
"@ c #B08018",
"# c #C8A218",
"$ c #D8B218",
"% c #E0B118",
"& c #D0A720",
"* c #E8BD30",
"= c #F8CE28",
"- c #F8E788",
/* pixels */
"$$                                                            $$",
"$$$$                                                       $$$$$",
"$$$$$$$                                                  $$$$$$$",
"$$$$$$$$$$                                            $$$&$$$$$$",
"$$$$$$****$$                                        $$####oooo$$",
"$$$$$$****$$$$$                                  $$$==####oooo$$",
"$$$$$$****$$$$$$$$                             $$=====####oooo$$",
"$$$$$$****$$$$$$$$$$                        $$$=======####oooo$$",
"$$$$$$----XXXX$$$$$$$$                    $$$$&&&&XXXX++++XXXX$$",
"$$$$$$----XXXX$$$$$XX$                  $$$$$$&&&&XXXX++++XXXX$$",
"$$$$$$----XXXX$$$$$XX$                  $XX$$$&&&&XXXX++++XXXX$$",
"$$$$$$----XXXX$$$$$$$$                  $XX$$$&&&&XXXX++++XXXX$$",
"$$$$$$----$$$$$$$$$$$$                  $$$$$$$$$$$&&&++++XXXX$$",
"$$$$$$----$$$$$$$$$$$$                  $$$$$$$$$$$&&&++++XXXX$$",
"$$$$$$----$$$$$$$$$$$$                  $$$$$$$$$$$&&&++++XXXX$$",
"$$$$$$----$$$$$$$$$$$$                  $$$$$$$$$$$&&&++++XXXX$$",
"$$$$$$====$$$$$$$$$$$$                  $$$$$$$$$$$ooo++++XXXX$$",
"$$$$$$====$$$$$$$$$$$$                  $$$$$$$$$$$ooo++++XXXX$$",
"$$$$$$====$$$$$$$$$$$$                  $$$$$$$$$$$ooo++++XXXX$$",
"$$$$$$====$$$$$$$$$$$$                  $$$$$$$$$$$ooo++++XXXX$$",
"$$$$$$====$$$$$$$$$$$$                  $$$$$$$$$$$ooo++++XXXX$$",
"$$$$$$====$$$$$$$$$$$$                  $$$$$$$$$$$ooo++++XXXX$$",
"$$$$$$====$$$$$$$$$$$$                  $$$$$$$$$$$ooo++++XXXX$$",
"$$$$$$====$$$$$$$$$$$$                  $$$$$$$$$$$ooo++++XXXX$$",
"$$&&&&****$$$$$$$$$$$$                  $$$$$$$$$$$oooOOOOXXXX$$",
"$$&&&&****$$$$$$$$$$$$                  $$$$$$$$$$$oooOOOOXXXX$$",
"$$&&&&****$$$$$$$$$$$$                  $$$$$$$$$$$oooOOOOXXXX$$",
"$$&&&&****$$$$$$$$$.$$                  $$$$$$$$$$$oooOOOOXXXX$$",
"$$&&&&****$$$$$$$$.$.$                  $$.$$$$$$$$oooOOOOXXXX$$",
"$$&&&&****$$$$$$$$$.$$                  $.$.$$$$$$$oooOOOOXXXX$$",
"$$&&&&****$$$$$$$$$$$$                  $$.$$$$$$$$oooOOOOXXXX$$",
"$$&&&&****$$$$$$$$$$$$                  $$$$$$$$$$$oooOOOOXXXX$$",
"$$&&&&****$$$$$$$$$$$$                  $$$$$$$$$$$oooOOOOXXXX$$",
"$$&&&&****$$$$$$$$$$$$                  $$$$$$$$$$$oooOOOOXXXX$$",
"$$&&&&****$$$$$$$$$$$$                  $$$$$$$$$$$oooOOOOXXXX$$",
"$$&&&&****$$$$$$$$$$$$                  $$$$$$$$$$$oooOOOOXXXX$$",
"$$####%%%%$$$$$$$$$$$$                  $$$$$$$$$$$$$$OOOOXXXX$$",
"$$####%%%%$$$$$$$$$$$$                  $$$$$$$$$$$$$$OOOOXXXX$$",
"$$####%%%%$$$$$$$$$$$$                  $$$$$$$$$$$$$$OOOOXXXX$$",
"$$####%%%%$$$$$$$$$$$$                  $$$$$$$$$$$$$$OOOOXXXX$$",
"$$++++%%%%$$$$$$$$$$$$                  $$$$$$$$$$$$$$ooooXXXX$$",
"$$++++%%%%$$$$$$$$$$$$                  $$$$$$$$$$$$$$ooooXXXX$$",
"$$++++%%%%$$$$$$$$$$$$                  $$$$$$$$$$$$$$ooooXXXX$$",
"$$++++%%%%$$$$$$$$$$$$                  $$$$$$$$$$$$$$ooooXXXX$$",
"$$++++$$$$$$$$$$$$$$$$                  $$$$$$$$$$$$$$ooooXXXX$$",
"$$++++$$$$$$$$$$$$$$$$                  $$$$$$$$$$$$$$ooooXXXX$$",
"$$++++$$$$$$$$$$$$$$$$                  $$$$$$$$$$$$$$ooooXXXX$$",
"$$++++$$$$$$$$$$$$$$$$                  $$$$$$$$$$$$$$ooooXXXX$$",
"$$++++$$$$&&&&$$$$$$$$                  $$$$$$$$$$$$$$ooooXXXX$$",
"$$++++$$$$&&&&$$$$$XX$                  $XX$$$$$$$$$$$ooooXXXX$$",
"$$++++$$$$&&&&$$$$$XX$                  $XX$$$$$$$$$$$ooooXXXX$$",
"$$++++$$$$&&&&$$$$$$$$                  $$$$$$$$$$$$$$ooooXXXX$$",
"$$++++####XXXX@@@@@@ O                  OOoo@@@@@@XXXXooooXXXX$$",
"$$++++####XXXX@@@@ OO                     OO@@@@@@XXXXooooXXXX$$",
"$$++++####XXXX@@ OO                         OO@@@@XXXXooooXXXX$$",
"$$++++####XXXX@OO                             OO@@XXXXooooXXXX$$",
"$$ooooOOOOOOOOO                                 OOOOOOooooXXXX$$",
"$$ooooOOOOOOO                                     OOOOooooXXXX$$",
"$$ooooOOOOO                                         OOooooXXXX$$",
"$$ooooOOO                                             OOooXXXX$$",
"$$$$$OO                                                 OO$$$$$$",
"$$$OO                                                     OO$$$$",
"$OO                                                         OO$$",
"O                                                             OO"
};
