/* XPM */
static char *_5c37358eef24225f21f60ee49721950LLYZsaftM1pRb0wp[] = {
/* columns rows colors chars-per-pixel */
"32 32 98 2 ",
"   c None",
".  c #050607",
"X  c #0C0F10",
"o  c #0B1214",
"O  c #0F1718",
"+  c #111415",
"@  c #131617",
"#  c #141819",
"$  c #2A0000",
"%  c #2B0F06",
"&  c #3E0002",
"*  c #391509",
"=  c #38170A",
"-  c #162224",
";  c #1C2022",
":  c #1F2325",
">  c #182527",
",  c #272C2E",
"<  c #202E30",
"1  c #25373A",
"2  c #2C393D",
"3  c #303738",
"4  c #34383A",
"5  c #4B0103",
"6  c #5B0105",
"7  c #670000",
"8  c #650007",
"9  c #79030A",
"0  c #4A210F",
"q  c #592B07",
"w  c #48342D",
"e  c #784B1F",
"r  c #3B4F53",
"t  c #3E575B",
"y  c #484D4F",
"u  c #7D6344",
"i  c #595F61",
"p  c #5E6363",
"a  c #52636A",
"s  c #526B70",
"d  c #646C6E",
"f  c #89000D",
"g  c #BF000D",
"h  c #A70013",
"j  c #A40513",
"k  c #C8081B",
"l  c #FF0914",
"z  c #FF0B1C",
"x  c #EC263A",
"c  c #F52D3B",
"v  c #FF353D",
"b  c #FF3F3E",
"n  c #8D5F34",
"m  c #8B6524",
"M  c #9F5E5E",
"N  c #B45E66",
"B  c #8C7F7A",
"V  c #FF5941",
"C  c #F8485A",
"Z  c #FF655E",
"A  c #F85F6E",
"S  c #DC636F",
"D  c #FF7761",
"F  c #B79457",
"G  c #FF8574",
"H  c #FF9E77",
"J  c #FFCB6B",
"K  c #E7C07C",
"L  c #F37683",
"P  c #72858E",
"I  c #72979E",
"U  c #7E929C",
"Y  c #808C8B",
"T  c #8A9294",
"R  c #8C9395",
"E  c #92999A",
"W  c #949FA1",
"Q  c #99A2A5",
"!  c #A1AAAE",
"~  c #A4A8AE",
"^  c #A1AFB1",
"/  c #A9ACB0",
"(  c #BDBFBB",
")  c #DBB2B6",
"_  c #E4B2B8",
"`  c #EEB4BA",
"'  c #97BBC1",
"]  c #F9BDC3",
"[  c #C1C5C6",
"{  c #CACFC6",
"}  c #CFD4D4",
"|  c #DCD5D1",
" . c #DBDDDD",
".. c #F1EBDF",
"X. c #D2E8F6",
"o. c #E7F3FA",
"O. c #F5FAFD",
"+. c white",
/* pixels */
"                                                                ",
"                              = = =                             ",
"                            % m F K =                           ",
"                            % = 0 0 %                           ",
"                          : = q e n = :                         ",
"                        : ' 4 q q e i X.:                       ",
"                        : I ~ 4 y i / +.:                       ",
"                          : Y { ( ..| :                         ",
"                            + ; , 3 +                           ",
"                            + w u B +                           ",
"                          : ' t w ^ +.:                         ",
"                        : ' t - s o.o.+.:                       ",
"                      : ' t - s P X.O.+.+.:                     ",
"                    : 7 t 1 - P X.+.X.+.+.+.#                   ",
"                  $ 7 x 7 7 t s X.+.+.X.O.[ p .                 ",
"                  $ f 7 x C 7 1 s P T R Q d E #                 ",
"                    $ f 7 7 x 7 o O 2 !  .E X                   ",
"                      $ f & 7 C 7 > r ! +.X                     ",
"                      $ g 5 7 x G 7 < a  .X                     ",
"                    $ f 6 j 7 k x C 7 < W U X                   ",
"                  $ f 8 k b j 7 k x Z 7 > } r +                 ",
"                $ f 8 j k v Z j 7 k x C 7 7 M < X               ",
"                $ g 8 k c x Z C j 7 7 k x x ] 7 $               ",
"              $ f 8 l k x V v J C C H 7 7 7 +.L k $             ",
"              $ f 8 j k x x x v v Z Z Z A H M M 7 $             ",
"              $ g 8 9 j k x V x x v x D C C +.S k $             ",
"              $ f 8 8 j z k x v x V x x x L ] h h $             ",
"                $ f 8 8 f j k k k k S S S ` h f $               ",
"                  $ f g 8 8 N S S S _ +.) f f $                 ",
"                    $ $ f f g f f g f f f $ $                   ",
"                        $ $ $ $ $ $ $ $ $                       ",
"                                                                "
};
